<?xml version="1.0" encoding="UTF-8" standalone="no"?>
<!-- Created with Inkscape (http://www.inkscape.org/) -->

<svg
   width="79.375mm"
   height="79.375mm"
   viewBox="0 0 79.375 79.375"
   version="1.1"
   id="svg1"
   xml:space="preserve"
   xmlns="http://www.w3.org/2000/svg"
   xmlns:svg="http://www.w3.org/2000/svg"><defs
     id="defs1"><clipPath
       clipPathUnits="userSpaceOnUse"
       id="clipPath4"><rect
         style="fill:#000000;fill-opacity:0.798867;stroke-width:0.264583"
         id="rect5"
         width="59.804832"
         height="44.163567"
         x="78.574348"
         y="174.44611" /></clipPath></defs><g
     id="layer1"
     transform="translate(-67.869194,-154.94053)"><g
       id="g6"><rect
         style="fill:#000000;fill-opacity:0;stroke-width:0.264583"
         id="rect6"
         width="79.375"
         height="79.375"
         x="67.869194"
         y="154.94052" /><path
         style="fill:#6d41a1;fill-opacity:1"
         d="m 40.027319,206.16445 -0.06521,-37.10781 h 70.908331 70.90833 l -0.0652,37.10781 -0.0652,37.10782 -0.068,-36.84323 -0.068,-36.84324 h -70.6419 -70.641931 l -0.068,36.84324 -0.068,36.84323 z m 60.259791,21.30031 c -7.011463,-5.26271 -7.011463,-5.26271 -7.083322,-0.2177 -0.06001,4.21278 -0.135553,5.045 -0.45798,5.045 -0.608511,0 -0.683157,-0.82873 -0.603366,-6.69856 0.07487,-5.50794 0.07487,-5.50794 7.152476,-0.19602 7.077602,5.31191 7.077602,5.31191 7.077602,0.28241 0,-4.34009 0.0555,-5.0295 0.40518,-5.0295 0.22285,0 0.46337,0.15165 0.53449,0.33699 0.0711,0.18534 0.0972,2.90269 0.0579,6.03854 -0.0715,5.70155 -0.0715,5.70155 -7.08293,0.43884 z m -39.58633,0.34755 c -3.143883,-4.73227 -3.143883,-4.73227 -3.276175,-0.19241 -0.110739,3.80025 -0.196948,4.53987 -0.529166,4.53987 -0.339827,0 -0.406843,-0.91277 -0.46622,-6.35 -0.06935,-6.35 -0.06935,-6.35 3.538031,-0.92604 1.984057,2.98317 3.701478,5.52664 3.81649,5.65214 0.115013,0.1255 1.782249,-2.13668 3.704971,-5.02708 1.922721,-2.8904 3.600021,-5.36838 3.727334,-5.50663 0.132806,-0.14421 0.231477,2.4216 0.231477,6.01927 0,5.36165 -0.0568,6.27063 -0.391834,6.27063 -0.56154,0 -0.662668,-0.70688 -0.734662,-5.13525 -0.06413,-3.94461 -0.06413,-3.94461 -3.089034,0.60958 -1.663698,2.50481 -3.106451,4.60459 -3.206117,4.66619 -0.09967,0.0616 -1.595959,-2.01753 -3.325095,-4.62027 z m 71.99778,4.39144 c -4.01176,-1.33399 -6.05038,-4.59375 -4.77774,-7.63961 0.49509,-1.18491 2.06051,-2.69314 3.57607,-3.44541 1.01571,-0.50416 1.63159,-0.59679 3.9798,-0.59855 2.35956,-0.002 2.94222,0.0857 3.86727,0.58059 2.6328,1.40847 3.80564,3.08513 3.80564,5.44041 0,2.33961 -1.47217,4.18045 -4.36562,5.45887 -1.14784,0.50715 -4.8047,0.62956 -6.08542,0.2037 z m 5.40686,-1.1468 c 1.81758,-0.58701 3.62689,-2.19433 3.99062,-3.5451 0.83735,-3.10967 -2.37396,-6.06771 -6.58723,-6.06771 -4.91166,0 -8.10849,3.35023 -6.47718,6.78797 1.22456,2.58058 5.60633,3.94471 9.07379,2.82484 z m -63.893625,0.89754 c -0.07124,-0.18566 -0.09727,-2.8348 -0.05784,-5.88698 0.07169,-5.54941 0.07169,-5.54941 7.347736,-5.61387 4.086173,-0.0362 7.442575,0.042 7.655903,0.17828 0.314805,0.20115 0.320585,0.31415 0.03375,0.65976 -0.298777,0.36001 -1.282504,0.41705 -7.192883,0.41705 -6.846769,0 -6.846769,0 -6.846769,1.98437 0,1.98438 0,1.98438 6.81302,1.98843 3.747162,0.002 6.983959,0.11221 7.192883,0.24441 0.314812,0.19921 0.320591,0.31179 0.03375,0.65741 -0.298777,0.36001 -1.282504,0.41704 -7.192883,0.41704 -6.846769,0 -6.846769,0 -6.846769,2.11667 0,2.11667 0,2.11667 7.14375,2.11667 3.929062,0 7.14375,0.0952 7.14375,0.21166 0,0.76199 -0.786776,0.84667 -7.866429,0.84667 -5.61918,0 -7.260309,-0.0753 -7.360965,-0.33757 z m 43.050995,0.01 c -0.21106,-0.21106 -0.30694,-1.85827 -0.30694,-5.2732 0,-4.96627 0,-4.96627 -3.37343,-5.04032 -3.17237,-0.0696 -3.37344,-0.10559 -3.37344,-0.60321 0,-0.51451 0.19789,-0.53096 7.14375,-0.59366 4.00686,-0.0362 7.31055,0.0421 7.52361,0.17827 0.31481,0.20119 0.32059,0.31419 0.0337,0.6598 -0.28098,0.33857 -0.96239,0.41705 -3.62101,0.41705 -3.27489,0 -3.27489,0 -3.27489,5.14376 0,2.82906 -0.10001,5.20556 -0.22223,5.2811 -0.12223,0.0755 -0.36035,-7.8e-4 -0.52917,-0.16959 z m 28.97132,0.14937 c -0.0958,-0.0957 -0.17409,-2.78321 -0.17409,-5.97214 0,-5.79805 0,-5.79805 6.1989,-5.71059 6.7836,0.0957 6.86434,0.11409 8.16749,1.85952 1.62221,2.17277 0.23068,5.66696 -2.47207,6.20751 -0.80342,0.16069 -0.80342,0.16069 0.99332,1.35897 1.74155,1.16147 2.18109,1.55741 2.18956,1.9724 0.0112,0.54808 -1.1741,0.0325 -3.4978,-1.52136 -2.57177,-1.71979 -2.57177,-1.71979 -6.54642,-1.71979 -3.97465,0 -3.97465,0 -3.97465,1.55511 0,1.46071 -0.43177,2.42284 -0.88424,1.97037 z m 12.23518,-4.96716 c 1.01006,-0.52233 1.61365,-1.52347 1.61365,-2.67651 0,-0.74104 -0.20649,-1.16829 -0.89959,-1.86139 -0.89958,-0.89958 -0.89958,-0.89958 -6.48229,-0.89958 -5.58271,0 -5.58271,0 -5.58271,2.91041 0,2.91042 0,2.91042 5.30481,2.91042 4.11472,0 5.47111,-0.086 6.04613,-0.38335 z M 95.554325,212.03012 c -0.784019,-0.21085 -2.117443,-0.75217 -2.963165,-1.20293 -1.599561,-0.85256 -4.739471,-3.86376 -4.739471,-4.54519 0,-0.70228 3.129783,-3.31716 5.102265,-4.26285 5.536786,-2.65457 9.554416,-1.74033 15.464026,3.51895 3.59327,3.19783 4.96195,4.16351 6.83321,4.82121 2.80532,0.98599 6.66576,0.42731 9.50789,-1.37596 1.8597,-1.17994 3.57386,-2.62501 3.57386,-3.01282 0,-0.54484 -1.55802,-2.33794 -2.70359,-3.11154 -0.59112,-0.39918 -1.70913,-0.92574 -2.48447,-1.17015 -1.40971,-0.44437 -1.40971,-0.44437 -3.53925,0.55496 -2.25722,1.05925 -3.8404,1.34978 -3.8404,0.70476 0,-0.21187 0.59584,-0.57416 1.38597,-0.84274 3.91811,-1.3318 6.92647,-3.76626 8.31143,-6.72586 0.9233,-1.97303 1.46761,-5.02348 1.17435,-6.58135 -0.19347,-1.02782 -0.19347,-1.02782 -2.4899,-0.89084 -2.65759,0.15852 -4.48112,0.77651 -6.35915,2.15511 -1.59789,1.17296 -2.08383,1.89119 -2.58434,3.81968 -0.7251,2.79382 -3.14891,7.18866 -3.96464,7.18866 -0.73655,0 -0.57228,-0.56894 0.79141,-2.74104 1.59135,-2.53472 2.54678,-5.49103 2.54033,-7.86031 -0.01,-3.67584 -1.70822,-7.55399 -4.73395,-10.81068 -1.08834,-1.17141 -1.08834,-1.17141 -1.89967,-0.39688 -1.32891,1.26862 -2.84683,3.75452 -3.41418,5.59138 -1.00951,3.26842 -0.62834,6.79462 1.10591,10.2309 0.52775,1.04568 0.69692,1.64135 0.5172,1.82107 -0.48889,0.48889 -1.00173,-9.9e-4 -1.90715,-1.82175 -1.72647,-3.47189 -4.890774,-6.00021 -8.430106,-6.73577 -1.477466,-0.30705 -4.351232,-0.23135 -4.706563,0.12398 -0.110126,0.11013 -0.201928,1.17427 -0.204006,2.36477 -0.004,2.27077 0.449876,3.91294 1.585354,5.73642 0.317154,0.50932 0.525907,1.07487 0.463895,1.25677 -0.411779,1.20788 -2.118034,-1.04159 -2.854904,-3.76381 -0.569349,-2.10334 -0.448992,-5.7482 0.211628,-6.40882 0.554476,-0.55447 3.872157,-0.77192 5.722606,-0.37507 1.841241,0.39487 3.963822,1.42118 5.577816,2.69697 1.31473,1.03923 1.31473,1.03923 1.29259,-1.01205 -0.0122,-1.12821 0.0626,-2.52753 0.16614,-3.10962 0.34209,-1.92288 2.1157,-5.20526 3.7925,-7.0187 1.58351,-1.71255 1.58351,-1.71255 2.33605,-1.27861 0.4139,0.23866 1.42341,1.22283 2.24335,2.18704 2.46288,2.89622 4.19774,6.75351 4.19774,9.33329 0,0.62844 0.0721,1.14261 0.16024,1.14261 0.0881,0 0.53462,-0.31605 0.99219,-0.70233 1.28597,-1.08563 3.73673,-2.13702 5.78771,-2.48296 2.2183,-0.37416 4.65279,-0.22835 4.98641,0.29866 0.31989,0.50532 0.29527,4.59369 -0.0363,6.03205 -0.44524,1.93132 -1.5433,3.93773 -3.03941,5.55371 -1.41853,1.53217 -1.41853,1.53217 0.0135,2.12573 0.78764,0.32646 1.91907,0.94634 2.51429,1.37752 1.14129,0.82674 2.64427,2.93201 2.64427,3.7039 0,0.58457 -2.32731,2.6452 -4.32153,3.82633 -2.33235,1.3814 -4.32823,1.96322 -6.7346,1.96322 -3.83837,0 -5.73811,-0.96135 -10.87543,-5.50345 -3.39009,-2.9973 -5.25329,-4.11163 -7.56948,-4.52708 -3.091022,-0.55444 -7.110961,0.78126 -9.834511,3.26769 -1.277985,1.16672 -1.277985,1.16672 0.177223,2.65525 1.67145,1.70972 3.915363,2.91844 6.189867,3.33427 2.051395,0.37504 4.416471,-0.0351 6.948651,-1.20507 1.52169,-0.70306 1.97443,-0.81576 2.19749,-0.54699 0.20105,0.24225 0.18596,0.41462 -0.0531,0.60617 -1.35856,1.08879 -5.72208,2.46309 -7.718501,2.43097 -0.595185,-0.01 -1.723625,-0.18993 -2.507644,-0.40078 z"
         id="path4"
         clip-path="url(#clipPath4)"
         transform="matrix(1.2338462,0,0,1.2333333,-26.286949,-47.756378)" /></g></g></svg>
